<?xml version="1.0" standalone="no"?>
<!DOCTYPE svg PUBLIC "-//W3C//DTD SVG 20010904//EN"
 "http://www.w3.org/TR/2001/REC-SVG-20010904/DTD/svg10.dtd">
<svg version="1.0" xmlns="http://www.w3.org/2000/svg"
 width="70.000000pt" height="70.000000pt" viewBox="0 0 70.000000 70.000000"
 preserveAspectRatio="xMidYMid meet">

<g transform="translate(0.000000,70.000000) scale(0.100000,-0.100000)"
fill="#000000" stroke="none">
<path d="M232 523 c-25 -5 -167 -165 -167 -188 0 -7 33 -52 73 -99 l72 -86
195 0 c251 0 235 -13 235 184 0 201 12 191 -212 193 -95 1 -183 -1 -196 -4z
m361 -36 c16 -11 17 -30 15 -157 l-3 -145 -191 -3 -192 -2 -65 77 -65 78 32
40 c17 22 49 59 72 82 l41 43 169 0 c121 0 175 -4 187 -13z"/>
<path d="M295 430 c-5 -7 9 -28 34 -53 l41 -41 -41 -42 c-58 -59 -41 -80 17
-23 l43 42 46 -42 c59 -54 81 -43 26 13 -23 23 -41 46 -41 52 0 5 18 28 40 49
27 26 37 42 30 49 -7 7 -25 -5 -55 -34 l-45 -44 -44 43 c-30 29 -46 39 -51 31z"/>
</g>
</svg>
